<?xml version="1.0" encoding="UTF-8" standalone="no"?>
<svg
   viewBox="0 0 348 348"
   fill="none"
   version="1.1"
   id="svg838"
   sodipodi:docname="Many Poly.svg"
   inkscape:version="1.1.1 (3bf5ae0d25, 2021-09-20)"
   xmlns:inkscape="http://www.inkscape.org/namespaces/inkscape"
   xmlns:sodipodi="http://sodipodi.sourceforge.net/DTD/sodipodi-0.dtd"
   xmlns="http://www.w3.org/2000/svg"
   xmlns:svg="http://www.w3.org/2000/svg">
  <defs
     id="defs842" />
  <sodipodi:namedview
     id="namedview840"
     pagecolor="#ffffff"
     bordercolor="#666666"
     borderopacity="1.0"
     inkscape:pageshadow="2"
     inkscape:pageopacity="0.0"
     inkscape:pagecheckerboard="0"
     showgrid="false"
     inkscape:snap-global="false"
     inkscape:zoom="2.25"
     inkscape:cx="162.44444"
     inkscape:cy="181.55556"
     inkscape:window-width="1920"
     inkscape:window-height="1001"
     inkscape:window-x="-9"
     inkscape:window-y="-9"
     inkscape:window-maximized="1"
     inkscape:current-layer="svg838" />
  <path
     d="M5.079 5.776h336.913v337.67H5.08z"
     stroke-width="2"
     stroke="#000"
     id="path834" />
  <path
     d="M282.734 40.554c0-8.376 6.966-15.165 15.56-15.165 4.126 0 8.084 1.597 11.001 4.441 2.918 2.844 4.558 6.702 4.558 10.724 0 8.376-6.966 15.165-15.56 15.165-8.593 0-15.559-6.79-15.559-15.165z"
     stroke-width="2"
     stroke="#000"
     id="path836" />
  <rect
     style="fill:none;fill-opacity:0.359292;stroke:#000000;stroke-width:1.88976;stroke-miterlimit:4;stroke-dasharray:none"
     id="rect946"
     width="46.933334"
     height="46.933334"
     x="149.93471"
     y="284.75555"
     ry="9.2444439" />
  <rect
     style="fill:none;fill-opacity:0.359292;stroke:#000000;stroke-width:1.88976;stroke-miterlimit:4;stroke-dasharray:none"
     id="rect1091"
     width="46.933334"
     height="46.933334"
     x="83.9347"
     y="284.75555"
     ry="9.2444439" />
  <rect
     style="fill:none;fill-opacity:0.359292;stroke:#000000;stroke-width:1.88976;stroke-miterlimit:4;stroke-dasharray:none"
     id="rect1093"
     width="46.933334"
     height="46.933334"
     x="17.934696"
     y="284.75555"
     ry="9.2444439" />
  <rect
     style="fill:none;fill-opacity:0.359292;stroke:#000000;stroke-width:1.88976;stroke-miterlimit:4;stroke-dasharray:none"
     id="rect1095"
     width="46.933334"
     height="46.933334"
     x="215.93471"
     y="284.75555"
     ry="9.2444439" />
  <rect
     style="fill:none;fill-opacity:0.359292;stroke:#000000;stroke-width:1.88976;stroke-miterlimit:4;stroke-dasharray:none"
     id="rect1097"
     width="46.933334"
     height="46.933334"
     x="281.93472"
     y="284.75555"
     ry="9.2444439" />
  <circle
     style="fill:#000000;fill-opacity:1;stroke:#000000;stroke-width:1.88976;stroke-miterlimit:4;stroke-dasharray:none"
     id="path1121"
     cx="74.223618"
     cy="296.22235"
     r="4" />
  <circle
     style="fill:#000000;fill-opacity:1;stroke:#000000;stroke-width:1.88976;stroke-miterlimit:4;stroke-dasharray:none"
     id="circle1315"
     cx="74.223618"
     cy="320.22235"
     r="4" />
  <circle
     style="fill:#000000;fill-opacity:1;stroke:#000000;stroke-width:1.88976;stroke-miterlimit:4;stroke-dasharray:none"
     id="circle1317"
     cx="140.22362"
     cy="296.22235"
     r="4" />
  <circle
     style="fill:#000000;fill-opacity:1;stroke:#000000;stroke-width:1.88976;stroke-miterlimit:4;stroke-dasharray:none"
     id="circle1319"
     cx="140.22362"
     cy="320.22235"
     r="4" />
  <circle
     style="fill:#000000;fill-opacity:1;stroke:#000000;stroke-width:1.88976;stroke-miterlimit:4;stroke-dasharray:none"
     id="circle1321"
     cx="206.22362"
     cy="296.22235"
     r="4" />
  <circle
     style="fill:#000000;fill-opacity:1;stroke:#000000;stroke-width:1.88976;stroke-miterlimit:4;stroke-dasharray:none"
     id="circle1323"
     cx="206.22362"
     cy="320.22235"
     r="4" />
  <circle
     style="fill:#000000;fill-opacity:1;stroke:#000000;stroke-width:1.88976;stroke-miterlimit:4;stroke-dasharray:none"
     id="circle1325"
     cx="272.22363"
     cy="296.22235"
     r="4" />
  <circle
     style="fill:#000000;fill-opacity:1;stroke:#000000;stroke-width:1.88976;stroke-miterlimit:4;stroke-dasharray:none"
     id="circle1327"
     cx="272.22363"
     cy="320.22235"
     r="4" />
  <ellipse
     style="fill:none;fill-opacity:1;stroke:#000000;stroke-width:1.88976;stroke-miterlimit:4;stroke-dasharray:none"
     id="path1369"
     cx="173.31134"
     cy="250.22223"
     rx="22.954182"
     ry="23.466667" />
  <ellipse
     style="fill:none;fill-opacity:1;stroke:#000000;stroke-width:1.92756;stroke-miterlimit:4;stroke-dasharray:none"
     id="ellipse1469"
     cx="173.31134"
     cy="250.22223"
     rx="16.124218"
     ry="16.484215" />
  <ellipse
     style="fill:none;fill-opacity:1;stroke:#000000;stroke-width:1.88976;stroke-miterlimit:4;stroke-dasharray:none"
     id="ellipse1471"
     cx="107.31134"
     cy="250.22223"
     rx="22.954182"
     ry="23.466667" />
  <ellipse
     style="fill:none;fill-opacity:1;stroke:#000000;stroke-width:1.92756;stroke-miterlimit:4;stroke-dasharray:none"
     id="ellipse1473"
     cx="107.31134"
     cy="250.22223"
     rx="16.124218"
     ry="16.484215" />
  <ellipse
     style="fill:none;fill-opacity:1;stroke:#000000;stroke-width:1.88976;stroke-miterlimit:4;stroke-dasharray:none"
     id="ellipse1475"
     cx="41.31134"
     cy="250.22223"
     rx="22.954182"
     ry="23.466667" />
  <ellipse
     style="fill:none;fill-opacity:1;stroke:#000000;stroke-width:1.92756;stroke-miterlimit:4;stroke-dasharray:none"
     id="ellipse1477"
     cx="41.31134"
     cy="250.22223"
     rx="16.124218"
     ry="16.484215" />
  <ellipse
     style="fill:none;fill-opacity:1;stroke:#000000;stroke-width:1.88976;stroke-miterlimit:4;stroke-dasharray:none"
     id="ellipse1479"
     cx="239.31134"
     cy="250.22223"
     rx="22.954182"
     ry="23.466667" />
  <ellipse
     style="fill:none;fill-opacity:1;stroke:#000000;stroke-width:1.92756;stroke-miterlimit:4;stroke-dasharray:none"
     id="ellipse1481"
     cx="239.31134"
     cy="250.22223"
     rx="16.124218"
     ry="16.484215" />
  <ellipse
     style="fill:none;fill-opacity:1;stroke:#000000;stroke-width:1.88976;stroke-miterlimit:4;stroke-dasharray:none"
     id="ellipse1483"
     cx="305.31134"
     cy="250.22223"
     rx="22.954182"
     ry="23.466667" />
  <ellipse
     style="fill:none;fill-opacity:1;stroke:#000000;stroke-width:1.92756;stroke-miterlimit:4;stroke-dasharray:none"
     id="ellipse1485"
     cx="305.31134"
     cy="250.22223"
     rx="16.124218"
     ry="16.484215" />
  <rect
     style="fill:none;fill-opacity:1;stroke:#000000;stroke-width:1.92756;stroke-miterlimit:4;stroke-dasharray:none"
     id="rect1509"
     width="172.44444"
     height="86.222221"
     x="87.333336"
     y="130"
     ry="16.444445" />
  <path
     id="rect1797"
     style="stroke:#000000;stroke-width:1.88976;stroke-miterlimit:4;stroke-dasharray:none"
     d="M 35.643859,148.22266 11.866515,172 35.643859,193.55469 h 45.333984 v -0.60352 L 57.866515,172 80.977843,148.88867 v -0.66601 z" />
  <path
     id="path1955"
     style="stroke:#000000;stroke-width:1.46644;stroke-miterlimit:4;stroke-dasharray:none"
     d="m 38.010693,153.30003 -18.45103,18.45102 18.45103,16.72627 H 69.189504 V 188.009 l -17.934207,-16.25795 17.934207,-17.9342 v -0.51682 z"
     sodipodi:nodetypes="ccccccccc" />
  <path
     id="path2132"
     style="stroke:#000000;stroke-width:1.88976;stroke-miterlimit:4;stroke-dasharray:none"
     d="M 312.02122,148.22266 335.79857,172 312.02122,193.55469 h -45.33398 v -0.60352 L 289.79857,172 266.68724,148.88867 v -0.66601 z" />
  <path
     id="path2134"
     style="stroke:#000000;stroke-width:1.46644;stroke-miterlimit:4;stroke-dasharray:none"
     d="m 309.65439,153.30003 18.45103,18.45102 -18.45103,16.72627 H 278.47558 V 188.009 l 17.93421,-16.25795 -17.93421,-17.9342 v -0.51682 z"
     sodipodi:nodetypes="ccccccccc" />
  <path
     id="path2158"
     style="fill:#000000;fill-opacity:1;stroke:#000000;stroke-width:1.63505;stroke-miterlimit:4;stroke-dasharray:none"
     d="M 173.33398,18.960351 A 47.68294,47.68294 0 0 0 125.65086,66.643479 47.68294,47.68294 0 0 0 173.33398,114.3266 47.68294,47.68294 0 0 0 221.01711,66.643479 47.68294,47.68294 0 0 0 173.33398,18.960351 Z m 0,14.367294 a 33.316734,33.316734 0 0 1 33.31584,33.315834 33.316734,33.316734 0 0 1 -33.31584,33.317526 33.316734,33.316734 0 0 1 -33.31753,-33.317526 33.316734,33.316734 0 0 1 33.31753,-33.315834 z" />
  <path
     id="path2283"
     style="fill:#000000;fill-opacity:1;stroke:#000000;stroke-width:1.63505;stroke-miterlimit:4;stroke-dasharray:none"
     d="M 173.71758,48.186692 A 18.457912,18.457912 0 0 0 155.2608,66.643479 18.457912,18.457912 0 0 0 173.71758,85.101954 18.457912,18.457912 0 0 0 192.17607,66.643479 18.457912,18.457912 0 0 0 173.71758,48.186692 Z m 0,9.204735 a 9.2521519,9.2521519 0 0 1 9.25206,9.252052 9.2521519,9.2521519 0 0 1 -9.25206,9.25205 9.2521519,9.2521519 0 0 1 -9.25205,-9.25205 9.2521519,9.2521519 0 0 1 9.25205,-9.252052 z" />
  <circle
     style="fill:none;fill-opacity:1;stroke:#000000;stroke-width:1.88976;stroke-miterlimit:4;stroke-dasharray:none"
     id="path2391"
     cx="173.39969"
     cy="66.798111"
     r="56" />
  <g
     aria-label="?"
     id="text3751"
     style="font-size:102.996px;line-height:1.25;-inkscape-font-specification:sans-serif;text-align:center;text-anchor:middle;fill:none;stroke:#000000;stroke-width:3.92876;stroke-miterlimit:4;stroke-dasharray:none"
     transform="matrix(0.44713403,0,0,0.44713403,11.002496,271.67933)">
    <path
       d="m 94.868851,60.623923 q 0,5.079393 -1.50873,9.002092 -1.45844,3.872408 -4.174155,6.738996 -2.715714,2.866588 -6.537832,5.129684 -3.771826,2.263096 -8.549473,4.123863 V 97.08491 H 56.396224 V 80.136838 q 3.570662,-0.95553 6.43725,-1.96135 2.916879,-1.00582 6.085213,-3.268916 2.96717,-2.011641 4.626773,-4.677065 1.709895,-2.665424 1.709895,-6.034922 0,-5.029101 -3.268916,-7.141324 -3.218625,-2.162514 -9.102674,-2.162514 -3.620953,0 -8.197436,1.559022 -4.526192,1.559021 -8.298018,4.023281 h -2.01164 V 45.13429 q 3.218625,-1.357858 9.90733,-2.816297 6.688705,-1.508731 13.578574,-1.508731 12.421881,0 19.714079,5.481721 7.292197,5.481721 7.292197,14.33294 z M 75.50681,117.20132 H 55.189239 V 103.92449 H 75.50681 Z"
       style="font-weight:bold;-inkscape-font-specification:'sans-serif Bold';fill:none;stroke:#000000;stroke-width:3.92876;stroke-miterlimit:4;stroke-dasharray:none"
       id="path6487" />
  </g>
  <g
     aria-label="?"
     id="g6546"
     style="font-size:102.996px;line-height:1.25;-inkscape-font-specification:sans-serif;text-align:center;text-anchor:middle;fill:none;stroke:#000000;stroke-width:3.92876;stroke-miterlimit:4;stroke-dasharray:none"
     transform="matrix(0.44713403,0,0,0.44713403,77.002496,271.67933)">
    <path
       d="m 94.868851,60.623923 q 0,5.079393 -1.50873,9.002092 -1.45844,3.872408 -4.174155,6.738996 -2.715714,2.866588 -6.537832,5.129684 -3.771826,2.263096 -8.549473,4.123863 V 97.08491 H 56.396224 V 80.136838 q 3.570662,-0.95553 6.43725,-1.96135 2.916879,-1.00582 6.085213,-3.268916 2.96717,-2.011641 4.626773,-4.677065 1.709895,-2.665424 1.709895,-6.034922 0,-5.029101 -3.268916,-7.141324 -3.218625,-2.162514 -9.102674,-2.162514 -3.620953,0 -8.197436,1.559022 -4.526192,1.559021 -8.298018,4.023281 h -2.01164 V 45.13429 q 3.218625,-1.357858 9.90733,-2.816297 6.688705,-1.508731 13.578574,-1.508731 12.421881,0 19.714079,5.481721 7.292197,5.481721 7.292197,14.33294 z M 75.50681,117.20132 H 55.189239 V 103.92449 H 75.50681 Z"
       style="font-weight:bold;-inkscape-font-specification:'sans-serif Bold';fill:none;stroke:#000000;stroke-width:3.92876;stroke-miterlimit:4;stroke-dasharray:none"
       id="path6544" />
  </g>
  <g
     aria-label="?"
     id="g6550"
     style="font-size:102.996px;line-height:1.25;-inkscape-font-specification:sans-serif;text-align:center;text-anchor:middle;fill:none;stroke:#000000;stroke-width:3.92876;stroke-miterlimit:4;stroke-dasharray:none"
     transform="matrix(0.44713403,0,0,0.44713403,143.0025,271.67933)">
    <path
       d="m 94.868851,60.623923 q 0,5.079393 -1.50873,9.002092 -1.45844,3.872408 -4.174155,6.738996 -2.715714,2.866588 -6.537832,5.129684 -3.771826,2.263096 -8.549473,4.123863 V 97.08491 H 56.396224 V 80.136838 q 3.570662,-0.95553 6.43725,-1.96135 2.916879,-1.00582 6.085213,-3.268916 2.96717,-2.011641 4.626773,-4.677065 1.709895,-2.665424 1.709895,-6.034922 0,-5.029101 -3.268916,-7.141324 -3.218625,-2.162514 -9.102674,-2.162514 -3.620953,0 -8.197436,1.559022 -4.526192,1.559021 -8.298018,4.023281 h -2.01164 V 45.13429 q 3.218625,-1.357858 9.90733,-2.816297 6.688705,-1.508731 13.578574,-1.508731 12.421881,0 19.714079,5.481721 7.292197,5.481721 7.292197,14.33294 z M 75.50681,117.20132 H 55.189239 V 103.92449 H 75.50681 Z"
       style="font-weight:bold;-inkscape-font-specification:'sans-serif Bold';fill:none;stroke:#000000;stroke-width:3.92876;stroke-miterlimit:4;stroke-dasharray:none"
       id="path6548" />
  </g>
  <g
     aria-label="?"
     id="g6554"
     style="font-size:102.996px;line-height:1.25;-inkscape-font-specification:sans-serif;text-align:center;text-anchor:middle;fill:none;stroke:#000000;stroke-width:3.92876;stroke-miterlimit:4;stroke-dasharray:none"
     transform="matrix(0.44713403,0,0,0.44713403,209.0025,271.67933)">
    <path
       d="m 94.868851,60.623923 q 0,5.079393 -1.50873,9.002092 -1.45844,3.872408 -4.174155,6.738996 -2.715714,2.866588 -6.537832,5.129684 -3.771826,2.263096 -8.549473,4.123863 V 97.08491 H 56.396224 V 80.136838 q 3.570662,-0.95553 6.43725,-1.96135 2.916879,-1.00582 6.085213,-3.268916 2.96717,-2.011641 4.626773,-4.677065 1.709895,-2.665424 1.709895,-6.034922 0,-5.029101 -3.268916,-7.141324 -3.218625,-2.162514 -9.102674,-2.162514 -3.620953,0 -8.197436,1.559022 -4.526192,1.559021 -8.298018,4.023281 h -2.01164 V 45.13429 q 3.218625,-1.357858 9.90733,-2.816297 6.688705,-1.508731 13.578574,-1.508731 12.421881,0 19.714079,5.481721 7.292197,5.481721 7.292197,14.33294 z M 75.50681,117.20132 H 55.189239 V 103.92449 H 75.50681 Z"
       style="font-weight:bold;-inkscape-font-specification:'sans-serif Bold';fill:none;stroke:#000000;stroke-width:3.92876;stroke-miterlimit:4;stroke-dasharray:none"
       id="path6552" />
  </g>
  <g
     aria-label="?"
     id="g6558"
     style="font-size:102.996px;line-height:1.25;-inkscape-font-specification:sans-serif;text-align:center;text-anchor:middle;fill:none;stroke:#000000;stroke-width:3.92876;stroke-miterlimit:4;stroke-dasharray:none"
     transform="matrix(0.44713403,0,0,0.44713403,275.0025,271.67933)">
    <path
       d="m 94.868851,60.623923 q 0,5.079393 -1.50873,9.002092 -1.45844,3.872408 -4.174155,6.738996 -2.715714,2.866588 -6.537832,5.129684 -3.771826,2.263096 -8.549473,4.123863 V 97.08491 H 56.396224 V 80.136838 q 3.570662,-0.95553 6.43725,-1.96135 2.916879,-1.00582 6.085213,-3.268916 2.96717,-2.011641 4.626773,-4.677065 1.709895,-2.665424 1.709895,-6.034922 0,-5.029101 -3.268916,-7.141324 -3.218625,-2.162514 -9.102674,-2.162514 -3.620953,0 -8.197436,1.559022 -4.526192,1.559021 -8.298018,4.023281 h -2.01164 V 45.13429 q 3.218625,-1.357858 9.90733,-2.816297 6.688705,-1.508731 13.578574,-1.508731 12.421881,0 19.714079,5.481721 7.292197,5.481721 7.292197,14.33294 z M 75.50681,117.20132 H 55.189239 V 103.92449 H 75.50681 Z"
       style="font-weight:bold;-inkscape-font-specification:'sans-serif Bold';fill:none;stroke:#000000;stroke-width:3.92876;stroke-miterlimit:4;stroke-dasharray:none"
       id="path6556" />
  </g>
</svg>
